<?xml version="1.0" encoding="utf-8"?>
<!-- Generator: Adobe Illustrator 22.1.0, SVG Export Plug-In . SVG Version: 6.00 Build 0)  -->
<svg xmlns="http://www.w3.org/2000/svg" xmlns:xlink="http://www.w3.org/1999/xlink" version="1.1" id="Layer_1" x="0px" y="0px" viewBox="0 0 512 512" style="enable-background:new 0 0 512 512;" xml:space="preserve" width="512" height="512">
<style type="text/css">
	.st0{fill:#FF9079;}
	.st1{fill:#FF624B;}
	.st2{fill:#FF4B34;}
	.st3{fill:#E58D23;}
	.st4{fill:#BF6C0D;}
	.st5{fill:#A56021;}
	.st6{fill:#8C4C17;}
	.st7{fill:#FCDA4F;}
	.st8{fill:#EACF32;}
	.st9{fill:#CCC033;}
	.st10{fill:#FFA730;}
	.st11{fill:#FFDF74;}
	.st12{fill:#F9BB32;}
	.st13{fill:#FFD551;}
	.st14{fill:#FFF4C1;}
	.st15{fill:#FFB74B;}
	.st16{fill:#FCE575;}
	.st17{fill:#FCF9DE;}
	.st18{fill:#99AF17;}
	.st19{fill:#FFEACF;}
	.st20{fill:#FFD59A;}
	.st21{fill:#DB9C2E;}
</style>
<g>
	<g>
		<path class="st12" d="M443.273,182.139h-42.346c2.322,7.802,0,0,0,0c-0.104-0.349-0.218-0.694-0.325-1.042h0.009    c-0.119-0.387-0.249-0.772-0.371-1.158c-0.184-0.584-0.367-1.168-0.559-1.748c-0.196-0.593-0.4-1.182-0.604-1.773    c-0.184-0.533-0.366-1.068-0.557-1.598c-0.216-0.603-0.441-1.202-0.666-1.803c-0.196-0.524-0.391-1.048-0.593-1.569    c-0.225-0.579-0.459-1.155-0.692-1.732c-0.219-0.541-0.436-1.082-0.661-1.62c-0.229-0.546-0.466-1.089-0.702-1.632    c-0.243-0.562-0.486-1.123-0.736-1.681c-0.235-0.521-0.477-1.04-0.719-1.559c-0.264-0.568-0.527-1.137-0.799-1.702    c-0.25-0.519-0.508-1.035-0.764-1.551c-0.273-0.55-0.545-1.099-0.825-1.645c-0.286-0.557-0.58-1.11-0.874-1.663    c-0.185-0.348-0.362-0.7-0.549-1.046l-0.006,0.006c-0.173-0.32-0.339-0.644-0.514-0.963c-1.583-2.871-1.583-2.871,0,0    l29.709-30.176c5.151-5.232,5.085-13.648-0.147-18.799l-37.89-37.303c-5.232-5.151-13.648-5.085-18.798,0.146l-29.709,30.176    c2.896,1.537,2.896,1.538,0,0c-0.336-0.178-2.182-1.13-2.771-1.427c-0.466-0.235-2.624-1.287-3.24-1.577    c-0.479-0.226-2.641-1.212-3.246-1.478c-0.519-0.228-11.198-4.354-11.84-4.569c-0.496-0.166-0.992-0.333-1.491-0.493    c-0.626-0.202-1.255-0.395-1.884-0.588c-0.364-0.112-1.49-0.459-1.089-0.34V45.889c0-6.914-5.279-12.59-12.025-13.229    c-0.888-0.179-1.806-0.273-2.748-0.266l-25.853,0.202h-25.839c-0.942,0-1.859,0.101-2.745,0.287    c-6.741,0.692-11.974,6.409-11.921,13.322l0.33,42.346c-0.365,0.112-0.727,0.235-1.092,0.35c-0.62,0.195-1.24,0.39-1.856,0.593    c-0.572,0.189-1.142,0.387-1.711,0.583c-0.561,0.193-1.123,0.386-1.68,0.587c-0.587,0.21-1.172,0.43-1.757,0.649    c-0.545,0.204-1.091,0.408-1.633,0.619c-0.577,0.225-1.152,0.458-1.726,0.69c-0.548,0.222-1.096,0.443-1.64,0.672    c-0.558,0.234-1.113,0.476-1.668,0.717c-0.556,0.242-1.112,0.484-1.665,0.733c-0.543,0.245-1.083,0.496-1.623,0.748    c-0.554,0.259-1.108,0.518-1.659,0.784c-0.543,0.262-1.084,0.531-1.624,0.8c-0.532,0.266-1.062,0.531-1.59,0.803    c-0.569,0.293-1.135,0.592-1.701,0.893c-0.283,0.151-0.571,0.295-0.854,0.448L170.8,69.278c-4.888-4.888-12.633-5.17-17.856-0.853    c-0.755,0.502-1.471,1.084-2.132,1.756l-18.13,18.415l-18.28,18.279c-0.666,0.666-1.244,1.387-1.739,2.145    c-4.276,5.255-3.934,12.999,0.992,17.849l30.176,29.709c0.033-0.063,0.061-0.116,0.093-0.176c-0.058,0.11-0.093,0.176-0.093,0.176    c-0.191,0.359-0.37,0.723-0.558,1.084c-0.294,0.566-0.589,1.131-0.876,1.702c-0.244,0.486-0.482,0.975-0.72,1.464    c-0.294,0.601-0.587,1.201-0.872,1.808c-0.23,0.49-0.454,0.983-0.678,1.475c-0.274,0.601-0.548,1.202-0.814,1.808    c-0.229,0.522-0.45,1.046-0.672,1.57c-0.245,0.578-0.492,1.156-0.729,1.738c-0.231,0.566-0.453,1.134-0.677,1.703    c-0.215,0.546-0.431,1.091-0.639,1.64c-0.231,0.609-0.451,1.222-0.673,1.834c-0.188,0.519-0.379,1.037-0.561,1.558    c-0.22,0.63-0.429,1.263-0.64,1.895c-0.172,0.519-0.348,1.035-0.515,1.556c-0.193,0.603-0.375,1.208-0.559,1.813    c-0.14,0.458-0.288,0.912-0.423,1.371c0.044-0.152,0.082-0.306,0.127-0.456H91.014c-7.341,0-13.293,5.952-13.293,13.293v53.171    c0,7.341,5.951,13.293,13.293,13.293h42.346c-0.02-0.068-0.037-0.126-0.057-0.19c0.036,0.12,0.057,0.19,0.057,0.19    c0.104,0.349,0.218,0.694,0.325,1.042h-0.01c0.118,0.387,0.248,0.77,0.37,1.155c0.184,0.585,0.368,1.17,0.56,1.752    c0.195,0.592,0.399,1.181,0.603,1.771c0.184,0.534,0.367,1.069,0.558,1.6c0.216,0.602,0.441,1.2,0.665,1.799    c0.197,0.525,0.391,1.051,0.594,1.572c0.225,0.578,0.458,1.153,0.691,1.729c0.219,0.542,0.436,1.085,0.662,1.623    c0.228,0.543,0.463,1.084,0.698,1.624c0.245,0.564,0.489,1.129,0.741,1.689c0.234,0.52,0.476,1.037,0.717,1.555    c0.264,0.569,0.528,1.139,0.8,1.704c0.25,0.519,0.508,1.035,0.764,1.551c0.273,0.55,0.545,1.1,0.825,1.645    c0.285,0.555,0.579,1.107,0.871,1.659c0.185,0.349,0.363,0.702,0.551,1.049l0.006-0.006c0.173,0.32,0.339,0.644,0.514,0.963    c1.583,2.871,1.583,2.871,0,0l-29.709,30.176c-5.151,5.232-5.085,13.648,0.147,18.799l37.89,37.303    c5.232,5.151,13.648,5.085,18.798-0.146c0,0,26.813-31.714,29.709-30.176c0.337,0.179,0.677,0.347,1.015,0.522    c0.583,0.304,1.166,0.607,1.754,0.903c0.469,0.236,0.94,0.465,1.411,0.695c0.607,0.297,1.214,0.593,1.826,0.881    c0.483,0.227,0.968,0.448,1.453,0.67c0.597,0.273,1.194,0.545,1.795,0.809c0.52,0.229,1.043,0.451,1.565,0.673    c0.566,0.24,1.133,0.481,1.703,0.715c0.568,0.233,1.139,0.458,1.71,0.683c0.529,0.209,1.058,0.417,1.591,0.619    c0.617,0.235,1.236,0.461,1.856,0.687c0.495,0.18,0.991,0.361,1.489,0.536c0.644,0.226,1.289,0.443,1.935,0.659    c0.493,0.165,0.986,0.331,1.481,0.491c0.629,0.202,1.26,0.396,1.891,0.59c0.363,0.111,0.722,0.23,1.085,0.339    c0.4,0.119,0.747,0.223,1.045,0.311l0,0c-0.298-0.089-0.645-0.192-1.045-0.311v42.346c0,6.914,5.279,12.59,12.024,13.229    c0.888,0.179,1.806,0.273,2.748,0.266l25.853-0.202h25.839c0.941,0,1.859-0.101,2.745-0.287    c6.741-0.692,11.975-6.409,11.921-13.322l-0.33-42.345c0.365-0.112,0.727-0.235,1.092-0.35c0.62-0.195,1.24-0.39,1.856-0.594    c0.571-0.188,1.14-0.385,1.709-0.582c0.562-0.194,1.125-0.387,1.684-0.588c0.586-0.211,1.169-0.429,1.752-0.648    c0.547-0.205,1.094-0.41,1.638-0.621c0.574-0.223,1.145-0.455,1.716-0.685c0.553-0.224,1.106-0.447,1.655-0.678    c0.551-0.231,1.099-0.47,1.648-0.708c0.564-0.245,1.127-0.491,1.686-0.743c0.536-0.242,1.069-0.489,1.602-0.739    c0.561-0.261,1.122-0.524,1.68-0.793c0.536-0.259,1.071-0.524,1.604-0.79c0.538-0.269,1.076-0.538,1.61-0.813    c0.564-0.29,1.125-0.587,1.686-0.885c0.286-0.153,0.576-0.298,0.861-0.453l29.944,29.943c4.888,4.888,12.634,5.17,17.856,0.852    c0.755-0.501,1.47-1.084,2.131-1.755l18.127-18.413l18.282-18.282c0.666-0.666,1.244-1.387,1.739-2.146    c4.276-5.255,3.934-12.999-0.992-17.848l-30.176-29.709c-0.182,0.342-0.347,0.654-0.512,0.963l-0.003-0.003    c0.173-0.32,0.337-0.645,0.508-0.967l0.007,0.007c0.191-0.359,0.37-0.723,0.558-1.084c0.294-0.566,0.589-1.131,0.876-1.702    c0.244-0.486,0.482-0.975,0.72-1.464c0.294-0.601,0.587-1.201,0.872-1.808c0.23-0.49,0.454-0.983,0.678-1.475    c0.274-0.602,0.549-1.202,0.815-1.808c0.228-0.519,0.448-1.04,0.669-1.562c0.247-0.581,0.495-1.163,0.734-1.749    c0.23-0.562,0.45-1.126,0.672-1.69c0.216-0.549,0.434-1.098,0.643-1.65c0.23-0.608,0.45-1.218,0.671-1.829    c0.189-0.521,0.38-1.04,0.563-1.563c0.22-0.629,0.428-1.26,0.638-1.892c0.173-0.519,0.349-1.036,0.516-1.558    c0.193-0.603,0.375-1.208,0.559-1.813c0.14-0.458,0.288-0.912,0.423-1.371c-0.044,0.152-0.082,0.306-0.127,0.457h42.338    c7.341,0,13.293-5.952,13.293-13.293v-53.171C456.566,188.091,450.615,182.139,443.273,182.139z M349.429,245.908    c-0.321,1.114-0.674,2.22-1.041,3.323c-0.111,0.328-0.22,0.658-0.334,0.985c-0.295,0.851-0.611,1.696-0.934,2.54    c-0.225,0.583-0.451,1.165-0.688,1.742c-0.236,0.578-0.483,1.151-0.732,1.725c-0.361,0.827-0.729,1.65-1.115,2.463    c-0.149,0.314-0.303,0.628-0.456,0.942c-0.511,1.041-1.035,2.075-1.586,3.091c-0.045,0.083-0.091,0.166-0.136,0.249    c-9.06,16.585-23.449,29.846-40.84,37.507c-0.441,0.193-0.877,0.4-1.321,0.585c-0.442,0.186-0.894,0.351-1.339,0.529    c-17.663,7.021-37.212,7.97-55.388,2.79c-0.088-0.025-0.177-0.05-0.265-0.075c-1.113-0.321-2.22-0.674-3.322-1.041    c-0.33-0.111-0.66-0.221-0.987-0.335c-0.851-0.295-1.695-0.611-2.538-0.933c-0.584-0.225-1.167-0.451-1.745-0.689    c-0.577-0.235-1.149-0.482-1.721-0.731c-0.827-0.361-1.651-0.729-2.464-1.115c-0.315-0.149-0.628-0.303-0.942-0.456    c-1.041-0.511-2.075-1.035-3.093-1.586c-0.083-0.044-0.165-0.09-0.247-0.135c-16.587-9.061-29.85-23.452-37.511-40.847    c-0.192-0.439-0.398-0.873-0.582-1.314c-0.186-0.443-0.352-0.897-0.531-1.344c-7.02-17.662-7.968-37.209-2.788-55.384    c0.025-0.088,0.05-0.177,0.076-0.265c0.321-1.113,0.674-2.22,1.041-3.322c0.111-0.33,0.22-0.659,0.335-0.987    c0.295-0.851,0.611-1.695,0.933-2.538c0.225-0.584,0.452-1.167,0.689-1.745c0.235-0.576,0.482-1.149,0.73-1.721    c0.362-0.828,0.73-1.652,1.117-2.466c0.148-0.314,0.302-0.626,0.454-0.939c0.511-1.042,1.035-2.076,1.587-3.093    c0.044-0.083,0.09-0.165,0.135-0.247c9.06-16.587,23.451-29.85,40.846-37.511c0.439-0.191,0.873-0.398,1.315-0.582    c0.444-0.186,0.898-0.353,1.345-0.531c17.661-7.019,37.206-7.968,55.38-2.788c0.09,0.026,0.181,0.051,0.271,0.077    c1.111,0.321,2.216,0.672,3.316,1.039c0.332,0.112,0.663,0.222,0.993,0.337c0.85,0.295,1.694,0.611,2.536,0.933    c0.583,0.225,1.165,0.451,1.742,0.689c0.578,0.236,1.152,0.483,1.725,0.732c0.827,0.362,1.651,0.73,2.465,1.117    c0.314,0.148,0.625,0.301,0.937,0.453c1.043,0.512,2.079,1.037,3.098,1.589c0.081,0.044,0.161,0.088,0.242,0.132    c16.587,9.06,29.85,23.45,37.512,40.844c0.193,0.441,0.4,0.877,0.585,1.32c0.186,0.442,0.351,0.894,0.529,1.339    c7.021,17.663,7.97,37.211,2.789,55.388C349.479,245.732,349.455,245.82,349.429,245.908z"/>
	</g>
	<g>
		<path class="st21" d="M169.126,289.375C170.709,292.246,170.709,292.246,169.126,289.375L169.126,289.375z"/>
	</g>
	<g>
		<path class="st21" d="M139.564,338.349c-5.232-5.151-5.298-13.567-0.147-18.799l29.708-30.175    c-0.176-0.32-0.341-0.643-0.515-0.963l-0.006,0.007c-0.188-0.347-0.366-0.701-0.551-1.049c-0.293-0.552-0.586-1.104-0.871-1.659    c-0.28-0.545-0.552-1.096-0.825-1.645c-0.256-0.516-0.514-1.032-0.764-1.551c-0.272-0.565-0.535-1.134-0.8-1.704    c-0.24-0.518-0.483-1.035-0.717-1.555c-0.252-0.56-0.496-1.125-0.741-1.689c-0.235-0.541-0.47-1.081-0.698-1.624    c-0.226-0.538-0.443-1.081-0.662-1.623c-0.233-0.576-0.466-1.151-0.691-1.729c-0.203-0.522-0.398-1.048-0.594-1.572    c-0.224-0.599-0.45-1.198-0.665-1.799c-0.191-0.531-0.373-1.066-0.558-1.6c-0.203-0.59-0.408-1.179-0.603-1.771    c-0.192-0.582-0.376-1.167-0.561-1.753c-0.122-0.385-0.252-0.768-0.37-1.155h0.009c-0.107-0.348-0.221-0.693-0.325-1.042H133.36    c0.104,0.349,0.218,0.694,0.325,1.042h-0.009c0.118,0.387,0.248,0.77,0.37,1.155c0.184,0.585,0.368,1.171,0.561,1.753    c0.195,0.592,0.399,1.181,0.603,1.771c0.185,0.533,0.367,1.069,0.558,1.6c0.216,0.602,0.441,1.2,0.665,1.799    c0.196,0.525,0.391,1.05,0.594,1.572c0.225,0.578,0.458,1.153,0.691,1.729c0.219,0.542,0.436,1.085,0.662,1.623    c0.228,0.543,0.463,1.084,0.698,1.624c0.245,0.564,0.488,1.129,0.741,1.689c0.234,0.52,0.476,1.038,0.717,1.555    c0.265,0.569,0.528,1.139,0.8,1.704c0.25,0.518,0.508,1.035,0.764,1.551c0.273,0.55,0.545,1.1,0.825,1.645    c0.285,0.555,0.578,1.107,0.871,1.659c0.185,0.349,0.363,0.703,0.551,1.049l0.006-0.007c0.173,0.32,0.339,0.643,0.515,0.963    c1.583,2.871,1.583,2.871,0,0l-29.708,30.175c-5.151,5.232-5.085,13.648,0.147,18.799l37.89,37.303    c5.232,5.15,13.648,5.085,18.798-0.147c0,0,0.918-1.086,2.427-2.839L139.564,338.349z"/>
	</g>
	<g>
		<path class="st21" d="M143.832,156.578c0.033-0.063,0.062-0.116,0.093-0.176C143.867,156.512,143.832,156.578,143.832,156.578    c-0.191,0.36-0.37,0.723-0.558,1.084c-0.294,0.566-0.589,1.131-0.876,1.702c-0.244,0.486-0.482,0.975-0.72,1.464    c-0.294,0.601-0.587,1.202-0.872,1.807c-0.23,0.49-0.454,0.984-0.678,1.475c-0.274,0.601-0.548,1.202-0.814,1.807    c-0.229,0.522-0.45,1.046-0.672,1.57c-0.245,0.578-0.492,1.156-0.729,1.738c-0.231,0.566-0.453,1.135-0.677,1.703    c-0.215,0.546-0.431,1.091-0.639,1.64c-0.231,0.609-0.452,1.222-0.673,1.834c-0.188,0.519-0.379,1.037-0.561,1.558    c-0.22,0.63-0.429,1.263-0.64,1.895c-0.172,0.519-0.348,1.035-0.515,1.556c-0.193,0.603-0.375,1.209-0.559,1.813    c-0.093,0.306-0.188,0.61-0.282,0.915h24.244c-0.045,0.151-0.082,0.305-0.127,0.457c0.135-0.46,0.283-0.913,0.423-1.372    c0.184-0.605,0.366-1.21,0.559-1.813c0.167-0.521,0.343-1.037,0.515-1.556c0.211-0.632,0.42-1.265,0.64-1.895    c0.182-0.522,0.373-1.039,0.561-1.558c0.222-0.612,0.443-1.224,0.673-1.834c0.208-0.549,0.425-1.094,0.639-1.64    c0.224-0.569,0.446-1.138,0.677-1.703c0.238-0.582,0.484-1.159,0.729-1.738c0.223-0.524,0.443-1.048,0.672-1.57    c0.266-0.605,0.541-1.207,0.814-1.807c0.225-0.492,0.448-0.985,0.678-1.475c0.285-0.606,0.578-1.207,0.872-1.807    c0.238-0.489,0.476-0.978,0.72-1.464c0.287-0.571,0.582-1.136,0.876-1.702c0.188-0.36,0.367-0.724,0.558-1.084l-30.176-29.709    c-4.926-4.85-5.268-12.593-0.992-17.849c0.495-0.758,1.073-1.479,1.739-2.145l18.28-18.28l16.459-16.718l-2.6-2.6    c-4.889-4.889-12.633-5.17-17.856-0.853c-0.755,0.501-1.471,1.084-2.132,1.755l-18.13,18.415l-18.28,18.28    c-0.666,0.666-1.243,1.387-1.739,2.145c-4.276,5.256-3.934,12.999,0.992,17.849L143.832,156.578z"/>
	</g>
	<g>
		<path class="st21" d="M168.09,156.578c0,0,0.035-0.065,0.093-0.176C168.151,156.462,168.123,156.515,168.09,156.578z"/>
	</g>
	<g>
		<path class="st21" d="M101.979,248.604v-53.171c0-7.341,5.951-13.293,13.292-13.293H91.014c-7.341,0-13.292,5.952-13.292,13.293    v53.171c0,7.341,5.951,13.293,13.292,13.293h24.258C107.93,261.896,101.979,255.945,101.979,248.604z"/>
	</g>
	<g>
		<path class="st21" d="M157.618,261.896c0,0-0.021-0.071-0.057-0.19C157.581,261.771,157.598,261.829,157.618,261.896z"/>
	</g>
	<g>
		<path class="st13" d="M410.701,333.011c-1.536,0-3.071-0.586-4.243-1.757l-29.461-29.462c-2.343-2.343-2.343-6.142,0-8.485    s6.142-2.343,8.485,0l29.461,29.462c2.343,2.343,2.343,6.142,0,8.485C413.772,332.425,412.236,333.011,410.701,333.011z"/>
	</g>
	<g>
		<path class="st21" d="M169.23,289.303C170.811,292.171,170.812,292.171,169.23,289.303L169.23,289.303z"/>
	</g>
	<g>
		<path class="st21" d="M168.195,156.647c0,0,0.035-0.065,0.093-0.176C168.257,156.531,168.228,156.585,168.195,156.647z"/>
	</g>
	<g>
		<path class="st21" d="M157.735,261.854c0,0-0.021-0.071-0.057-0.19C157.697,261.729,157.715,261.786,157.735,261.854z"/>
	</g>
	<g>
		<path class="st21" d="M226.672,88.693c0.004-0.001,0.007-0.002,0.01-0.003c3.115-0.932,6.275-1.755,9.477-2.469    c0.043-0.01,0.087-0.019,0.13-0.029c3.156-0.7,6.353-1.291,9.585-1.771c0.125-0.018,0.252-0.034,0.378-0.053    c1.414-0.206,2.837-0.387,4.264-0.55c0.049-0.006,0.099-0.011,0.149-0.017l-0.293-37.408c-0.054-6.906,5.194-12.617,11.953-13.308    c0.888-0.186,1.808-0.287,2.752-0.287h-24.324c-0.944,0-1.864,0.101-2.752,0.287c-6.759,0.691-12.007,6.402-11.953,13.308    l0.331,42.3H226.672z"/>
	</g>
	<g>
		<path class="st21" d="M263.807,411.154c-6.786-0.634-12.096-6.263-12.096-13.12v-37.556c-0.166-0.017-0.334-0.027-0.5-0.045    c-0.246-0.026-0.491-0.056-0.736-0.084c-1.432-0.161-2.859-0.341-4.278-0.545c-0.126-0.018-0.253-0.034-0.379-0.053    c-3.243-0.476-6.449-1.063-9.616-1.759c-0.044-0.009-0.087-0.019-0.131-0.028c-2.566-0.566-5.099-1.221-7.61-1.926l-1.153-0.38    v0.38v0.812v41.184c0,6.856,5.31,12.486,12.096,13.12c0.893,0.178,1.817,0.271,2.764,0.264l22.263-0.171    C264.223,411.215,264.011,411.195,263.807,411.154z"/>
	</g>
	<g>
		<path class="st8" d="M354.726,358.81H179.562v-26.658c0-27.614,22.386-50,50-50h75.164c27.614,0,50,22.386,50,50V358.81z"/>
	</g>
	<g>
		<path class="st9" d="M212.616,352.669c0-27.383,22.199-49.582,49.582-49.582h75.999c2.67,0,5.289,0.217,7.845,0.624    c-8.936-13.018-23.918-21.559-40.9-21.559h-75.999c-27.384,0-49.582,22.199-49.582,49.582v27.076h33.055V352.669z"/>
	</g>
	<g>
		<path class="st6" d="M220.825,219.472h17.934v-66.3c0-6.7-5.432-12.132-12.132-12.132h-5.802c-6.7,0-12.132,5.432-12.132,12.132    v54.168C208.693,214.04,214.125,219.472,220.825,219.472z"/>
	</g>
	<g>
		<path class="st6" d="M314.389,141.069h-7.657c-6.188,0-11.205,5.017-11.205,11.205v9.756    c12.126,9.019,19.982,23.457,19.982,39.731v17.684c5.662-0.562,10.084-5.338,10.084-11.148v-56.023    C325.594,146.085,320.577,141.069,314.389,141.069z"/>
	</g>
	<g>
		<circle class="st19" cx="316.63" cy="206.012" r="16.006"/>
	</g>
	<g>
		<circle class="st20" cx="215.789" cy="206.012" r="16.006"/>
	</g>
	<g>
		<path class="st19" d="M267.144,314.365L267.144,314.365c-13.408,0-24.277-10.869-24.277-24.276v-55.886    c0-1.107,0.897-2.004,2.004-2.004h44.546c1.107,0,2.004,0.897,2.004,2.004v55.886C291.42,303.497,280.551,314.365,267.144,314.365    z"/>
	</g>
	<g>
		<path class="st20" d="M259.674,290.089v-57.89h-16.807v57.89c0,13.408,10.869,24.277,24.277,24.277l0,0    c2.954,0,5.785-0.529,8.403-1.495C266.281,309.451,259.674,300.542,259.674,290.089z"/>
	</g>
	<g>
		<path class="st19" d="M267.144,262.994L267.144,262.994c-27.331,0-49.487-22.156-49.487-49.487v-25.193    c0-27.331,22.156-49.487,49.487-49.487h0c27.331,0,49.487,22.156,49.487,49.487v25.193    C316.63,240.838,294.474,262.994,267.144,262.994z"/>
	</g>
	<g>
		<path class="st20" d="M235.024,207.277v-24.565c0-1.874,0.105-3.723,0.309-5.542c0.315-2.817,2.73-4.93,5.564-4.93h73.062    c-6.673-19.439-25.111-33.412-46.815-33.412c-2.125,0-4.216,0.138-6.271,0.398c0.003-0.002,0.006-0.004,0.009-0.005    c-0.158,0.02-0.314,0.049-0.472,0.071c-0.522,0.071-1.042,0.146-1.558,0.234c-0.25,0.042-0.498,0.09-0.747,0.136    c-0.457,0.084-0.913,0.173-1.365,0.27c-0.263,0.056-0.524,0.115-0.785,0.176c-0.441,0.102-0.879,0.21-1.315,0.324    c-0.255,0.066-0.511,0.133-0.765,0.203c-0.452,0.126-0.9,0.26-1.346,0.398c-0.228,0.07-0.457,0.137-0.683,0.211    c-0.535,0.174-1.065,0.359-1.592,0.55c-0.13,0.047-0.263,0.09-0.392,0.138c-0.655,0.244-1.303,0.502-1.945,0.773    c-0.167,0.071-0.331,0.148-0.498,0.22c-0.47,0.204-0.937,0.413-1.399,0.631c-0.231,0.109-0.459,0.224-0.688,0.337    c-0.393,0.193-0.784,0.389-1.171,0.592c-0.245,0.129-0.488,0.261-0.731,0.393c-0.367,0.201-0.731,0.406-1.093,0.616    c-0.242,0.141-0.484,0.282-0.724,0.426c-0.363,0.219-0.721,0.445-1.078,0.672c-0.225,0.144-0.452,0.286-0.675,0.434    c-0.393,0.26-0.779,0.529-1.164,0.8c-0.177,0.125-0.357,0.245-0.533,0.371c-0.545,0.394-1.082,0.799-1.61,1.215    c-0.164,0.129-0.323,0.265-0.485,0.396c-0.368,0.298-0.735,0.597-1.094,0.904c-0.215,0.184-0.424,0.373-0.635,0.561    c-0.3,0.266-0.598,0.532-0.891,0.805c-0.222,0.206-0.44,0.416-0.658,0.626c-0.275,0.265-0.547,0.533-0.815,0.805    c-0.217,0.219-0.433,0.44-0.646,0.663c-0.263,0.275-0.52,0.555-0.776,0.837c-0.206,0.226-0.413,0.451-0.615,0.681    c-0.263,0.3-0.519,0.607-0.776,0.913c-0.182,0.219-0.369,0.434-0.548,0.655c-0.375,0.465-0.741,0.938-1.099,1.416    c-0.186,0.248-0.365,0.502-0.547,0.754c-0.251,0.348-0.502,0.696-0.744,1.051c-0.177,0.26-0.347,0.525-0.519,0.789    c-0.202,0.308-0.403,0.617-0.598,0.93c-0.175,0.28-0.344,0.564-0.513,0.848c-0.182,0.306-0.361,0.613-0.537,0.922    c-0.165,0.292-0.328,0.585-0.487,0.88c-0.169,0.312-0.332,0.627-0.494,0.943c-0.153,0.298-0.306,0.596-0.452,0.898    c-0.16,0.328-0.312,0.66-0.464,0.992c-0.136,0.295-0.275,0.588-0.405,0.887c-0.175,0.402-0.339,0.811-0.504,1.219    c-0.179,0.444-0.352,0.891-0.519,1.342c-0.137,0.369-0.277,0.736-0.405,1.11h0.004c-1.731,5.041-2.676,10.447-2.676,16.075v24.595    c0,27.225,21.739,49.8,48.963,50.082c8.753,0.091,16.988-2.092,24.152-5.993c-2.161,0.273-4.364,0.407-6.602,0.392    C256.869,257.206,235.024,234.578,235.024,207.277z"/>
	</g>
	<g>
		<g>
			<circle class="st5" cx="239.132" cy="200.911" r="6.162"/>
		</g>
		<g>
			<circle class="st5" cx="295.155" cy="200.911" r="6.162"/>
		</g>
	</g>
	<g>
		<path class="st1" d="M335.738,219.617H324.84V194.53h10.898c4.522,0,8.187,3.666,8.187,8.188v8.712    C343.926,215.951,340.26,219.617,335.738,219.617z"/>
	</g>
	<g>
		<path class="st2" d="M197.31,194.53h10.898v25.087H197.31c-4.522,0-8.188-3.666-8.188-8.187v-8.712    C189.122,198.196,192.788,194.53,197.31,194.53z"/>
	</g>
	<g>
		<path class="st4" d="M275.544,246.291c-0.976,0-1.83-0.714-1.976-1.708c-0.161-1.093,0.594-2.109,1.687-2.271l41.915-6.185    c3.853-0.568,6.758-3.934,6.758-7.828v-21.391c0-1.105,0.896-2,2-2s2,0.895,2,2v21.391c0,5.863-4.374,10.929-10.174,11.785    l-41.915,6.185C275.74,246.284,275.642,246.291,275.544,246.291z"/>
	</g>
	<g>
		<path class="st6" d="M277.45,251.313h-8.921c-3.038,0-5.5-2.462-5.5-5.5v-2.63c0-3.038,2.462-5.5,5.5-5.5h8.921    c3.038,0,5.5,2.462,5.5,5.5v2.63C282.95,248.85,280.488,251.313,277.45,251.313z"/>
	</g>
	<g>
		<path class="st5" d="M296.317,164.957h-80.18c-9.981,0-18.073-8.091-18.073-18.073v-8.643c0-9.981,8.091-18.073,18.073-18.073    h80.18c9.981,0,18.073,8.091,18.073,18.073v8.643C314.389,156.865,306.298,164.957,296.317,164.957z"/>
	</g>
	<g>
		<path class="st1" d="M331.255,226.737H320.6c-2.209,0-4-1.791-4-4v-31.658c0-2.209,1.791-4,4-4h10.655c2.209,0,4,1.791,4,4v31.658    C335.255,224.946,333.465,226.737,331.255,226.737z"/>
	</g>
	<g>
		<path class="st1" d="M202.729,187.079h10.655c2.209,0,4,1.791,4,4v31.658c0,2.209-1.791,4-4,4h-10.655c-2.209,0-4-1.791-4-4    v-31.658C198.729,188.87,200.52,187.079,202.729,187.079z"/>
	</g>
	<g>
		<path class="st4" d="M295.864,158.273c-1.536,0-3.071-0.586-4.243-1.757c-2.343-2.343-2.343-6.142,0-8.485    c2.48-2.48,3.663-4.755,3.516-6.763c-0.2-2.738-2.829-4.902-2.855-4.922c-2.659-1.978-3.21-5.737-1.232-8.395    c1.978-2.658,5.736-3.211,8.396-1.232c0.721,0.536,7.062,5.478,7.66,13.676c0.412,5.642-1.943,11.066-6.999,16.122    C298.936,157.687,297.399,158.273,295.864,158.273z"/>
	</g>
	<g>
		<path class="st2" d="M211.12,220.541c-2.737,0-4.956-2.219-4.956-4.956v-28.506h-2.478c-2.737,0-4.956,2.219-4.956,4.956v29.745    c0,2.737,2.219,4.956,4.956,4.956h8.743c2.737,0,4.956-2.219,4.956-4.956v-1.239H211.12z"/>
	</g>
	<g>
		<path class="st2" d="M322.796,221.78v-29.745c0-2.737,2.219-4.956,4.956-4.956h-6.196c-2.737,0-4.956,2.219-4.956,4.956v29.745    c0,2.737,2.219,4.956,4.956,4.956h6.196C325.015,226.737,322.796,224.517,322.796,221.78z"/>
	</g>
	<g>
		<path class="st19" d="M234.823,355.081v-0.478c0-5.325,4.317-9.642,9.642-9.642h125.73c14.911,0,26.998,12.088,26.998,26.998    v18.398H270.1C250.617,390.358,234.823,374.564,234.823,355.081z"/>
	</g>
	<g>
		<g>
			<rect x="397.194" y="390.358" class="st19" width="84.929" height="65.53"/>
		</g>
		<g>
			<path class="st19" d="M139.945,390.968l-59.466-59.466c-12.992-12.992-34.057-12.992-47.05,0c-4.736,4.736-4.736,12.415,0,17.151     l106.035,106.035l54.708,22.973c4.21,1.7,8.713,2.297,13.162,1.746l189.86-23.52h0v-12.802v-52.728H139.945V390.968z"/>
		</g>
	</g>
	<g>
		<path class="st20" d="M255.036,354.706L255.036,354.706c0-5.382,4.363-9.745,9.745-9.745h-20.213    c-5.382,0-9.745,4.363-9.745,9.745l0,0c0,19.69,15.962,35.652,35.652,35.652h20.213    C270.998,390.358,255.036,374.396,255.036,354.706z"/>
	</g>
	<g>
		<circle class="st20" cx="382.035" cy="416.447" r="15.16"/>
	</g>
	<g>
		<path class="st20" d="M438.345,438.707h-22.96h0l-189.86,23.52c-4.449,0.551-8.952-0.046-13.162-1.746l-54.708-22.973    L51.621,331.473c-2.35-2.35-3.531-5.424-3.549-8.504c-5.362,1.48-10.428,4.319-14.643,8.533c-4.736,4.736-4.736,12.415,0,17.151    l106.035,106.035l54.708,22.973c4.21,1.7,8.713,2.297,13.162,1.746l189.86-23.52h0h41.151h43.778v-9.233v-7.948H438.345z"/>
	</g>
	<g>
		<path class="st6" d="M218.064,146.884v-8.643c0-9.981,8.091-18.073,18.073-18.073h-20c-9.981,0-18.073,8.091-18.073,18.073v8.643    c0,9.981,8.091,18.073,18.073,18.073h20C226.156,164.957,218.064,156.865,218.064,146.884z"/>
	</g>
</g>
</svg>
