<?xml version="1.0" encoding="utf-8"?>
<!-- Generator: Adobe Illustrator 22.1.0, SVG Export Plug-In . SVG Version: 6.00 Build 0)  -->
<svg xmlns="http://www.w3.org/2000/svg" xmlns:xlink="http://www.w3.org/1999/xlink" version="1.1" id="Layer_1" x="0px" y="0px" viewBox="0 0 512 512" style="enable-background:new 0 0 512 512;" xml:space="preserve" width="512" height="512">
<style type="text/css">
	.st0{fill:#FF624B;}
	.st1{fill:#FFC34C;}
	.st2{fill:#F9BB32;}
	.st3{fill:#DB9C2E;}
	.st4{fill:#FF4B34;}
	.st5{fill:#FF9079;}
	.st6{fill:#FCE575;}
	.st7{fill:#FFD551;}
	.st8{fill:#FFF4C1;}
	.st9{fill:#FFB74B;}
	.st10{fill:#EACF32;}
	.st11{fill:#99AF17;}
	.st12{fill:#CCC033;}
	.st13{fill:#FCDA4F;}
	.st14{fill:#FFA730;}
	.st15{fill:#FFEACF;}
	.st16{fill:#FFD59A;}
	.st17{fill:#FFDF74;}
	.st18{fill:#E58D23;}
	.st19{fill:#BF6C0D;}
	.st20{fill:#A56021;}
	.st21{fill:#8C4C17;}
	.st22{fill:#FFEA63;}
	.st23{fill:#FCF9DE;}
</style>
<g>
	<g>
		<path class="st6" d="M487.53,413.053H24.47c-5.523,0-10-4.477-10-10v-294.43c0-5.523,4.477-10,10-10H487.53    c5.523,0,10,4.477,10,10v294.43C497.53,408.576,493.052,413.053,487.53,413.053z"/>
	</g>
	<g>
		<path class="st7" d="M77.637,402.525V109.151c0-5.814,4.713-10.528,10.528-10.528H24.998c-5.814,0-10.528,4.713-10.528,10.528    v293.375c0,5.814,4.713,10.528,10.528,10.528h63.167C82.351,413.053,77.637,408.34,77.637,402.525z"/>
	</g>
	<g>
		<path class="st1" d="M14.47,109.856v27.481l222.434,131.345c11.78,6.956,26.411,6.956,38.19,0L497.53,137.337v-27.481    c0-6.1-4.945-11.046-11.046-11.046H25.516C19.416,98.81,14.47,103.756,14.47,109.856z"/>
	</g>
	<g>
		<path class="st7" d="M324.604,239.372l-49.889,29.459c-11.78,6.956-26.411,6.956-38.191,0l-48.963-28.912L19.759,407.72    c-2.089,2.089-0.606,5.661,2.348,5.657l467.796-0.712c2.95-0.004,4.424-3.571,2.338-5.657L324.604,239.372z"/>
	</g>
	<g>
		<path class="st1" d="M88.165,413.053c-5.814,0-10.528-4.713-10.528-10.528v-52.683L19.759,407.72    c-0.993,0.993-1.172,2.319-0.776,3.438c1.706,1.191,3.777,1.895,6.016,1.895H88.165z"/>
	</g>
	<g>
		<path class="st8" d="M475.369,199.605c-3.313,0-6-2.686-6-6v-23.161c0-3.314,2.687-6,6-6s6,2.686,6,6v23.161    C481.369,196.919,478.683,199.605,475.369,199.605z"/>
	</g>
	<g>
		<path class="st8" d="M472.564,371.559c-0.039,0-0.077,0-0.116-0.001c-3.313-0.063-5.948-2.799-5.886-6.112l2.808-148.793    c0.063-3.313,2.813-5.952,6.112-5.886c3.313,0.063,5.948,2.799,5.886,6.112l-2.808,148.793    C478.499,368.947,475.825,371.559,472.564,371.559z"/>
	</g>
	<g>
		<path class="st9" d="M74.47,137.337v-27.481c0-6.1,4.945-11.046,11.046-11.046h-60c-6.1,0-11.046,4.945-11.046,11.046v27.481    l222.434,131.345c11.78,6.956,26.411,6.956,38.19,0L286,262.243L74.47,137.337z"/>
	</g>
	<g>
		<circle class="st9" cx="117.266" cy="125.712" r="15"/>
	</g>
</g>
</svg>
