<?xml version="1.0" encoding="utf-8"?>
<!-- Generator: Adobe Illustrator 22.1.0, SVG Export Plug-In . SVG Version: 6.00 Build 0)  -->
<svg xmlns="http://www.w3.org/2000/svg" xmlns:xlink="http://www.w3.org/1999/xlink" version="1.1" id="Layer_1" x="0px" y="0px" viewBox="0 0 512 512" style="enable-background:new 0 0 512 512;" xml:space="preserve" width="512" height="512">
<style type="text/css">
	.st0{fill:#FF624B;}
	.st1{fill:#FFC34C;}
	.st2{fill:#F9BB32;}
	.st3{fill:#DB9C2E;}
	.st4{fill:#FF4B34;}
	.st5{fill:#FF9079;}
	.st6{fill:#FCE575;}
	.st7{fill:#FFD551;}
	.st8{fill:#FFF4C1;}
	.st9{fill:#FFB74B;}
	.st10{fill:#EACF32;}
	.st11{fill:#99AF17;}
	.st12{fill:#CCC033;}
	.st13{fill:#FCDA4F;}
	.st14{fill:#FFA730;}
	.st15{fill:#FFEACF;}
	.st16{fill:#FFD59A;}
	.st17{fill:#FFDF74;}
	.st18{fill:#E58D23;}
	.st19{fill:#BF6C0D;}
	.st20{fill:#A56021;}
	.st21{fill:#8C4C17;}
	.st22{fill:#FFEA63;}
	.st23{fill:#FCF9DE;}
</style>
<g>
	<g>
		<path class="st0" d="M406.949,192.875h-57.231v-90.659c0-5.523,4.477-10,10-10h37.231c5.523,0,10,4.477,10,10V192.875z"/>
	</g>
	<g>
		<path class="st4" d="M380.719,92.216h-21c-5.523,0-10,4.477-10,10v90.659h21v-90.659    C370.719,96.693,375.196,92.216,380.719,92.216z"/>
	</g>
	<g>
		<path class="st13" d="M242.324,132.803L111.387,243.808c-4.585,3.887-7.229,9.594-7.229,15.606v180.102    c0,7.533,6.106,13.639,13.639,13.639H393.31c7.533,0,13.639-6.107,13.639-13.639V259.413c0-6.011-2.644-11.718-7.229-15.606    L268.784,132.803C261.151,126.332,249.957,126.332,242.324,132.803z"/>
	</g>
	<g>
		<path class="st0" d="M492.252,281.126c7.328-8.601,6.296-21.513-2.304-28.841L289.058,81.123l-19.916-17.274    c-7.77-6.739-19.336-6.662-27.016,0.181l-19.183,17.093L22.053,252.285c-8.601,7.328-9.632,20.241-2.304,28.841l6.967,8.177    c7.328,8.601,20.241,9.632,28.841,2.304L242.732,132.13c7.646-6.515,18.891-6.515,26.537,0l187.175,159.477    c8.601,7.328,21.513,6.296,28.841-2.304L492.252,281.126z"/>
	</g>
	<g>
		<g>
			<path class="st4" d="M56.715,289.303l-6.967-8.177c-7.328-8.601-6.296-21.513,2.304-28.841l200.89-171.162l17.814-15.873     l-1.615-1.401c-7.77-6.74-19.336-6.662-27.016,0.181l-19.183,17.093L22.053,252.285c-8.601,7.328-9.632,20.241-2.304,28.841     l6.967,8.177c7.328,8.601,20.24,9.632,28.841,2.304l1.848-1.574C57.175,289.789,56.935,289.561,56.715,289.303z"/>
		</g>
	</g>
	<g>
		<path class="st10" d="M144.158,439.515V259.413c0-6.011,2.644-11.718,7.229-15.605l124.167-105.265l-6.77-5.74    c-7.633-6.471-18.827-6.471-26.46,0L111.387,243.808c-4.585,3.887-7.229,9.594-7.229,15.605v180.102    c0,7.533,6.107,13.639,13.639,13.639h40C150.265,453.155,144.158,447.048,144.158,439.515z"/>
	</g>
	<g>
		<path class="st10" d="M289,453.155h-66V330.195c0-4.418,3.582-8,8-8h50c4.418,0,8,3.582,8,8V453.155z"/>
	</g>
	<g>
		<circle class="st10" cx="174.856" cy="262.798" r="15"/>
	</g>
	<g>
		<path class="st8" d="M391,302.494c-3.313,0-6-2.686-6-6v-16.47c0-3.314,2.687-6,6-6s6,2.686,6,6v16.47    C397,299.808,394.313,302.494,391,302.494z"/>
	</g>
	<g>
		<path class="st8" d="M391,437.588c-3.313,0-6-2.686-6-6V322.195c0-3.314,2.687-6,6-6s6,2.686,6,6v109.392    C397,434.901,394.313,437.588,391,437.588z"/>
	</g>
	<g>
		<circle class="st10" cx="213" cy="225.538" r="15"/>
	</g>
</g>
</svg>
