<?xml version="1.0" encoding="utf-8"?>
<!-- Generator: Adobe Illustrator 22.1.0, SVG Export Plug-In . SVG Version: 6.00 Build 0)  -->
<svg xmlns="http://www.w3.org/2000/svg" xmlns:xlink="http://www.w3.org/1999/xlink" version="1.1" id="Layer_1" x="0px" y="0px" viewBox="0 0 512 512" style="enable-background:new 0 0 512 512;" xml:space="preserve" width="512" height="512">
<style type="text/css">
	.st0{fill:#FF624B;}
	.st1{fill:#FFC34C;}
	.st2{fill:#F9BB32;}
	.st3{fill:#DB9C2E;}
	.st4{fill:#FF4B34;}
	.st5{fill:#FF9079;}
	.st6{fill:#FCE575;}
	.st7{fill:#FFD551;}
	.st8{fill:#FFF4C1;}
	.st9{fill:#FFB74B;}
	.st10{fill:#EACF32;}
	.st11{fill:#99AF17;}
	.st12{fill:#CCC033;}
	.st13{fill:#FCDA4F;}
	.st14{fill:#FFA730;}
	.st15{fill:#FFEACF;}
	.st16{fill:#FFD59A;}
	.st17{fill:#FFDF74;}
	.st18{fill:#E58D23;}
	.st19{fill:#BF6C0D;}
	.st20{fill:#A56021;}
	.st21{fill:#8C4C17;}
	.st22{fill:#FFEA63;}
	.st23{fill:#FCF9DE;}
</style>
<g>
	<g>
		<path class="st15" d="M399.369,495.865H86.816c-13.807,0-25-11.193-25-25V41.135c0-13.807,11.193-25,25-25h312.553    c13.807,0,25,11.193,25,25v429.73C424.369,484.672,413.176,495.865,399.369,495.865z"/>
	</g>
	<g>
		<path class="st16" d="M125.425,469.361V42.639c0-14.638,11.866-26.504,26.504-26.504H88.32c-14.638,0-26.504,11.866-26.504,26.504    v426.723c0,14.638,11.866,26.504,26.504,26.504h63.609C137.291,495.865,125.425,483.999,125.425,469.361z"/>
	</g>
	<g>
		<g>
			<path class="st20" d="M369.59,183.492H116.595c-5.27,0-9.541-4.272-9.541-9.541s4.272-9.541,9.541-9.541H369.59     c5.27,0,9.541,4.272,9.541,9.541S374.86,183.492,369.59,183.492z"/>
		</g>
	</g>
	<g>
		<g>
			<path class="st20" d="M369.59,236.499H116.595c-5.27,0-9.541-4.272-9.541-9.541s4.272-9.541,9.541-9.541H369.59     c5.27,0,9.541,4.272,9.541,9.541S374.86,236.499,369.59,236.499z"/>
		</g>
	</g>
	<g>
		<g>
			<path class="st20" d="M369.59,289.507H116.595c-5.27,0-9.541-4.272-9.541-9.541s4.272-9.541,9.541-9.541H369.59     c5.27,0,9.541,4.272,9.541,9.541S374.86,289.507,369.59,289.507z"/>
		</g>
	</g>
	<g>
		<g>
			<path class="st20" d="M369.59,342.514H116.595c-5.27,0-9.541-4.272-9.541-9.541s4.272-9.541,9.541-9.541H369.59     c5.27,0,9.541,4.272,9.541,9.541S374.86,342.514,369.59,342.514z"/>
		</g>
	</g>
	<g>
		<g>
			<path class="st20" d="M269.596,395.521H116.595c-5.27,0-9.541-4.272-9.541-9.541s4.272-9.541,9.541-9.541h153.001     c5.27,0,9.541,4.272,9.541,9.541S274.866,395.521,269.596,395.521z"/>
		</g>
	</g>
	<g>
		<g>
			<path class="st20" d="M269.596,130.484H116.595c-5.27,0-9.541-4.272-9.541-9.541s4.272-9.541,9.541-9.541h153.001     c5.27,0,9.541,4.272,9.541,9.541S274.866,130.484,269.596,130.484z"/>
		</g>
	</g>
	<g>
		<path class="st21" d="M116.595,376.439c-5.27,0-9.541,4.272-9.541,9.541s4.272,9.541,9.541,9.541h8.83v-19.083H116.595z"/>
	</g>
	<g>
		<path class="st21" d="M116.595,323.431c-5.27,0-9.541,4.272-9.541,9.541s4.272,9.541,9.541,9.541h8.83v-19.083H116.595z"/>
	</g>
	<g>
		<path class="st21" d="M116.595,270.424c-5.27,0-9.541,4.272-9.541,9.541s4.272,9.541,9.541,9.541h8.83v-19.083H116.595z"/>
	</g>
	<g>
		<path class="st21" d="M116.595,217.416c-5.27,0-9.541,4.272-9.541,9.541s4.272,9.541,9.541,9.541h8.83v-19.083H116.595z"/>
	</g>
	<g>
		<path class="st21" d="M116.595,164.409c-5.27,0-9.541,4.272-9.541,9.541s4.272,9.541,9.541,9.541h8.83v-19.083H116.595z"/>
	</g>
	<g>
		<path class="st21" d="M116.595,111.402c-5.27,0-9.541,4.272-9.541,9.541s4.272,9.541,9.541,9.541h8.83v-19.083H116.595z"/>
	</g>
	<g>
		<path class="st1" d="M366.264,226.365l-4.834-1.392c-6.226-1.794-9.44-9.665-7.178-17.582l22.32-78.126    c2.262-7.917,9.142-12.88,15.368-11.087l4.834,1.393c6.226,1.794,9.44,9.665,7.178,17.582l-22.32,78.126    C379.37,223.195,372.49,228.159,366.264,226.365z"/>
	</g>
	<g>
		<path class="st22" d="M346.567,329.007l-18.94,67.851l0.201,1.099l5.562,20.545c0.667,2.465,3.164,3.2,5.002,1.473l16.158-15.188    l18.94-67.851L346.567,329.007z"/>
	</g>
	<g>
		<path class="st7" d="M339.083,401.13l-0.202-1.099l18.903-67.721l-11.217-3.304l-18.94,67.851l0.202,1.099l5.562,20.545    c0.667,2.465,3.164,3.2,5.002,1.473l4.616-4.339L339.083,401.13z"/>
	</g>
	<g>
		<path class="st20" d="M330.283,408.65l2.56,9.244c0.727,2.623,3.445,3.406,5.446,1.568l7.049-6.477L330.283,408.65z"/>
	</g>
	<g>
		<path class="st14" d="M361.587,385.263l-31.188-8.979c-2.87-0.826-4.458-4.086-3.546-7.281l80.765-282.841    c3.478-12.18,15.169-19.5,26.112-16.35l1.953,0.562c10.943,3.151,16.995,15.579,13.517,27.759l-80.765,282.841    C367.524,384.17,364.458,386.09,361.587,385.263z"/>
	</g>
	<g>
		<path class="st18" d="M349.248,381.48c-2.87-0.826-4.458-4.086-3.546-7.281l80.765-282.841    c2.495-8.738,9.222-14.949,16.863-16.613c-2.142-1.996-4.711-3.525-7.646-4.371l-1.953-0.562    c-10.943-3.151-22.634,4.169-26.112,16.35l-80.765,282.841c-0.912,3.195,0.675,6.455,3.546,7.281l31.188,8.979    c0.479,0.138,0.964,0.193,1.443,0.185L349.248,381.48z"/>
	</g>
	<g>
		<path class="st22" d="M439.499,132.583l-40.288-11.106c-2.928-0.807-4.648-3.835-3.841-6.764l0.978-3.548    c0.807-2.928,3.835-4.648,6.764-3.841L443.4,118.43c2.928,0.807,4.648,3.835,3.841,6.764l-0.978,3.548    C445.456,131.671,442.427,133.39,439.499,132.583z"/>
	</g>
	<g>
		<path class="st7" d="M415.29,119.706l0.722-2.621c0.878-3.184,3.91-5.126,6.773-4.337l-19.792-5.456    c-2.863-0.789-5.895,1.153-6.773,4.337l-0.722,2.621c-0.878,3.184,0.731,6.406,3.594,7.195l19.792,5.456    C416.021,126.111,414.412,122.89,415.29,119.706z"/>
	</g>
	<g>
		<path class="st1" d="M416.26,182.978c-0.528,0-1.064-0.07-1.598-0.217c-3.195-0.881-5.071-4.184-4.19-7.379l3.323-12.056    c0.88-3.194,4.184-5.071,7.378-4.19c3.195,0.881,5.071,4.184,4.19,7.379l-3.323,12.056    C421.307,181.232,418.892,182.978,416.26,182.978z"/>
	</g>
	<g>
		<path class="st1" d="M392.398,269.541c-0.528,0-1.064-0.07-1.598-0.217c-3.195-0.881-5.071-4.184-4.19-7.379l19.238-69.789    c0.881-3.194,4.186-5.07,7.378-4.19c3.195,0.881,5.071,4.184,4.19,7.379l-19.238,69.789    C397.445,267.795,395.03,269.541,392.398,269.541z"/>
	</g>
	<g>
		<circle class="st16" cx="151.929" cy="432.887" r="15.902"/>
	</g>
	<g>
		<circle class="st16" cx="186.905" cy="464.692" r="15.902"/>
	</g>
	<g>
		<path class="st23" d="M407.962,454.789c-3.313,0-6-2.686-6-6V289.706c0-3.314,2.687-6,6-6s6,2.686,6,6v159.084    C413.962,452.103,411.275,454.789,407.962,454.789z"/>
	</g>
</g>
</svg>
