<?xml version="1.0" encoding="utf-8"?>
<!-- Generator: Adobe Illustrator 22.1.0, SVG Export Plug-In . SVG Version: 6.00 Build 0)  -->
<svg xmlns="http://www.w3.org/2000/svg" xmlns:xlink="http://www.w3.org/1999/xlink" version="1.1" id="Layer_1" x="0px" y="0px" viewBox="0 0 512 512" style="enable-background:new 0 0 512 512;" xml:space="preserve" width="512" height="512">
<style type="text/css">
	.st0{fill:#FF624B;}
	.st1{fill:#FFC34C;}
	.st2{fill:#F9BB32;}
	.st3{fill:#DB9C2E;}
	.st4{fill:#FF4B34;}
	.st5{fill:#FF9079;}
	.st6{fill:#FCE575;}
	.st7{fill:#FFD551;}
	.st8{fill:#FFF4C1;}
	.st9{fill:#FFB74B;}
	.st10{fill:#EACF32;}
	.st11{fill:#99AF17;}
	.st12{fill:#CCC033;}
	.st13{fill:#FCDA4F;}
	.st14{fill:#FFA730;}
	.st15{fill:#FFEACF;}
	.st16{fill:#FFD59A;}
	.st17{fill:#FFDF74;}
	.st18{fill:#E58D23;}
	.st19{fill:#BF6C0D;}
	.st20{fill:#A56021;}
	.st21{fill:#8C4C17;}
	.st22{fill:#FFEA63;}
	.st23{fill:#FCF9DE;}
</style>
<g>
	<g>
		<path class="st7" d="M215.471,369.502h81.057v81.213c0,21.539-17.461,39-39,39h-3.057c-21.539,0-39-17.461-39-39V369.502z"/>
	</g>
	<g>
		<path class="st1" d="M255.471,450.714v-81.213h-40v81.213c0,21.539,17.461,39,39,39h3.058c6.684,0,12.973-1.684,18.471-4.646    C263.779,478.483,255.471,465.57,255.471,450.714z"/>
	</g>
	<g>
		<path class="st7" d="M257.264,22.286h-2.529c-17.815,0-32.257,14.442-32.257,32.257v67.171h67.043V54.543    C289.522,36.728,275.08,22.286,257.264,22.286z M272.331,56.352c0,8.642-7.006,15.648-15.648,15.648h-1.365    c-8.643,0-15.648-7.006-15.648-15.648v-1.227c0-8.642,7.006-15.648,15.648-15.648h1.365c8.643,0,15.648,7.006,15.648,15.648    V56.352z"/>
	</g>
	<g>
		<g>
			<path class="st1" d="M239.669,56.352v-1.227c0-2.236,0.477-4.358,1.322-6.282c2.24-12.558,11.74-22.596,24.009-25.617     c-2.479-0.61-5.068-0.94-7.735-0.94h-2.529c-17.815,0-32.257,14.442-32.257,32.257v67.171h18v-60.42     C239.96,59.739,239.669,58.081,239.669,56.352z"/>
		</g>
	</g>
	<g>
		<path class="st7" d="M402.016,384.39H109.984l37.67-210.434c9.393-52.473,55.039-90.673,108.346-90.673h0    c53.307,0,98.953,38.2,108.346,90.673L402.016,384.39z"/>
	</g>
	<g>
		<path class="st6" d="M420.603,437.649H91.397c-14.152,0-25.625-11.473-25.625-25.625v-2.009c0-14.152,11.473-25.625,25.625-25.625    h329.205c14.152,0,25.625,11.473,25.625,25.625v2.009C446.228,426.177,434.755,437.649,420.603,437.649z"/>
	</g>
	<g>
		<path class="st1" d="M286,87.454c-9.573-2.711-19.638-4.171-30-4.171l0,0c-53.308,0-98.953,38.2-108.346,90.673L109.984,384.39h60    l37.669-210.434C215.221,131.683,246.324,98.69,286,87.454z"/>
	</g>
	<g>
		<path class="st13" d="M125.772,432.024v-2.009c0-14.152,11.473-25.625,25.625-25.625h294.203c-2.564-11.445-12.779-20-24.998-20    H91.397c-14.152,0-25.625,11.473-25.625,25.625v2.009c0,14.152,11.473,25.625,25.625,25.625h35.002    C125.993,435.838,125.772,433.957,125.772,432.024z"/>
	</g>
	<g>
		<path class="st17" d="M345.911,207.521c-3.153,0-5.798-2.462-5.984-5.651c-4.174-71.659-50.964-80.636-51.436-80.718    c-3.265-0.569-5.449-3.677-4.881-6.941c0.569-3.265,3.672-5.448,6.941-4.881c0.598,0.104,14.808,2.7,29.444,15.585    c13.209,11.626,29.467,34.294,31.911,76.258c0.192,3.308-2.333,6.146-5.642,6.339    C346.147,207.519,346.029,207.521,345.911,207.521z"/>
	</g>
	<g>
		<circle class="st1" cx="212.861" cy="320.19" r="16.879"/>
	</g>
	<g>
		<circle class="st1" cx="255.687" cy="348.741" r="16.879"/>
	</g>
</g>
</svg>
