<svg width="24" height="24" viewBox="0 0 24 24" fill="none" xmlns="http://www.w3.org/2000/svg">
<rect width="24" height="24" fill="#686868"/>
<path d="M18.527 23.247C18.3142 23.2475 18.1067 23.1798 17.935 23.054L12.001 18.7L6.06402 23.054C5.89303 23.1782 5.6871 23.245 5.47579 23.2448C5.26448 23.2446 5.05864 23.1776 4.88783 23.0532C4.71701 22.9288 4.58999 22.7535 4.52499 22.5524C4.45998 22.3513 4.46035 22.1349 4.52602 21.934L6.91902 14.746L1.20802 10.012C1.05114 9.87993 0.938651 9.70281 0.885813 9.50466C0.832974 9.30651 0.842337 9.0969 0.912631 8.90424C0.982925 8.71159 1.11075 8.5452 1.27879 8.42764C1.44682 8.31007 1.64694 8.24702 1.85202 8.24701H8.64702L11.062 1.40401C11.211 1.00701 11.588 0.747009 12.002 0.747009C12.2052 0.747493 12.4034 0.809726 12.5704 0.925455C12.7374 1.04118 12.8652 1.20494 12.937 1.39501L15.354 8.24701H22.148C22.3522 8.24754 22.5513 8.3105 22.7187 8.42743C22.8861 8.54437 23.0137 8.70969 23.0844 8.90121C23.1551 9.09274 23.1656 9.30132 23.1144 9.49897C23.0632 9.69662 22.9528 9.8739 22.798 10.007L17.083 14.746L19.475 21.932C19.524 22.0822 19.5368 22.2418 19.5124 22.3979C19.488 22.5539 19.4272 22.702 19.3348 22.8302C19.2425 22.9583 19.1212 23.0628 18.9808 23.1352C18.8404 23.2077 18.685 23.246 18.527 23.247ZM7.82002 14.194C7.97802 14.324 8.04002 14.543 7.97502 14.737L5.47502 22.247L11.705 17.676C11.7907 17.6125 11.8944 17.5783 12.001 17.5783C12.1076 17.5783 12.2114 17.6125 12.297 17.676L18.527 22.247L16.027 14.737C15.9958 14.6413 15.994 14.5384 16.0218 14.4416C16.0496 14.3448 16.1057 14.2586 16.183 14.194L22.156 9.24201L15.002 9.24701C14.8987 9.24695 14.798 9.2149 14.7137 9.15528C14.6293 9.09565 14.5655 9.01137 14.531 8.91401L12 1.73801L9.47202 8.91401C9.43752 9.01137 9.37372 9.09565 9.28938 9.15528C9.20504 9.2149 9.10431 9.24695 9.00102 9.24701H1.85202L7.82002 14.194Z" fill="white"/>
</svg>
